<?xml version="1.0" encoding="UTF-8"?>
<svg width="40px" height="80px" viewBox="0 0 40 80" version="1.1" xmlns="http://www.w3.org/2000/svg" xmlns:xlink="http://www.w3.org/1999/xlink">
    <!-- Generator: Sketch 52.2 (67145) - http://www.bohemiancoding.com/sketch -->
    <title>Group 3</title>
    <desc>Created with Sketch.</desc>
    <g id="Page-1" stroke="none" stroke-width="1" fill="none" fill-rule="evenodd">
        <g id="Проекты-(процесс)" transform="translate(-40.000000, -512.000000)">
            <g id="Oval" transform="translate(0.000000, 512.000000)">
                <g id="Group-2">
                    <g id="Group-3" transform="translate(40.000000, 0.000000)">
                        <circle id="Oval" fill="#364952" cx="40" cy="40" r="40"></circle>
                        <path d="M28.3668206,48.8459412 L20.3067146,40.7438235 C19.8977618,40.333 19.8977618,39.667 20.3067146,39.2561765 L28.3668206,31.1540588 C28.5710338,30.9486471 28.9026171,30.9486471 29.1068304,31.1540588 L29.8468401,31.8978824 C30.0510533,32.1032941 30.0510533,32.4362941 29.8468401,32.6417059 L22.8962223,39.6278235 C22.6920091,39.8332353 22.6920091,40.1667647 22.8962223,40.3716471 L29.8468401,47.3582941 C30.0510533,47.5637059 30.0510533,47.8967059 29.8468401,48.1021176 L29.1068304,48.8459412 C28.9026171,49.0513529 28.5710338,49.0513529 28.3668206,48.8459412" id="Icon-Copy" fill="#FFFFFF" transform="translate(25.000000, 40.000000) rotate(-180.000000) translate(-25.000000, -40.000000) "></path>
                    </g>
                </g>
            </g>
        </g>
    </g>
</svg>