<?xml version="1.0" encoding="UTF-8"?>
<svg width="32px" height="32px" viewBox="0 0 32 32" version="1.1" xmlns="http://www.w3.org/2000/svg" xmlns:xlink="http://www.w3.org/1999/xlink">
    <!-- Generator: Sketch 52.2 (67145) - http://www.bohemiancoding.com/sketch -->
    <title>Rectangle 2 Copy 5</title>
    <desc>Created with Sketch.</desc>
    <g id="Page-1" stroke="none" stroke-width="1" fill="none" fill-rule="evenodd">
        <g id="Проекты-(процесс)" transform="translate(-579.000000, -544.000000)">
            <g id="Rectangle-2-Copy-5" transform="translate(579.000000, 544.000000)">
                <rect fill="#D0D0D0" x="0" y="0" width="32" height="32" rx="4"></rect>
                <path d="M22.6,15.4 L17.2,15.4 C16.9792,15.4 16.8,15.2208 16.8,15 L16.8,9.4 C16.8,9.1792 16.6208,9 16.4,9 L15.6,9 C15.3792,9 15.2,9.1792 15.2,9.4 L15.2,15 C15.2,15.2208 15.0208,15.4 14.8,15.4 L9.4,15.4 C9.1792,15.4 9,15.5792 9,15.8 L9,16.6 C9,16.8208 9.1792,17 9.4,17 L14.8,17 C15.0208,17 15.2,17.1792 15.2,17.4 L15.2,22.6 C15.2,22.8208 15.3792,23 15.6,23 L16.4,23 C16.6208,23 16.8,22.8208 16.8,22.6 L16.8,17.4 C16.8,17.1792 16.9792,17 17.2,17 L22.6,17 C22.8208,17 23,16.8208 23,16.6 L23,15.8 C23,15.5792 22.8208,15.4 22.6,15.4" id="Icon-Copy-3" fill="#FBFAF9"></path>
            </g>
        </g>
    </g>
</svg>