<?xml version="1.0" encoding="UTF-8"?>
<svg width="14px" height="15px" viewBox="0 0 14 15" version="1.1" xmlns="http://www.w3.org/2000/svg" xmlns:xlink="http://www.w3.org/1999/xlink">
    <!-- Generator: Sketch 52.2 (67145) - http://www.bohemiancoding.com/sketch -->
    <title>Shape</title>
    <desc>Created with Sketch.</desc>
    <g id="Page-1" stroke="none" stroke-width="1" fill="none" fill-rule="evenodd" opacity="0.5">
        <g id="Проекты-(процесс)" transform="translate(-370.000000, -248.000000)" fill="#3D4044">
            <g id="1-copy-2" transform="translate(370.000000, 248.000000)">
                <path d="M0.0254545455,13.5583385 L1.07111111,8.64522779 C1.07111111,8.52226345 1.13141414,8.43125129 1.22060606,8.34044527 L8.7269697,0.680684395 C9.30171717,0.00937950938 10.8616162,-0.436198722 11.9558586,0.680684395 L13.3320202,2.08493094 C14.2226263,2.99350649 14.2226263,4.47093383 13.3320202,5.37971552 L5.82565657,13.0392703 C5.76515152,13.1010101 5.67616162,13.1625438 5.55535354,13.1918161 L0.712222222,14.3203463 C0.422020202,14.3644609 -0.124040404,14.1767677 0.0254545455,13.5583385 Z M12.4960606,4.52669553 C12.9441414,4.06947021 12.9441414,3.36590394 12.4960606,2.90867862 L11.119899,1.50443208 C10.6834343,1.05885384 9.97090909,1.05885384 9.53424242,1.50443208 L2.68565657,8.49268192 L3.4640404,8.49268192 C3.79161616,8.49268192 4.06161616,8.76850134 4.06161616,9.1024531 L4.06161616,10.108019 L5.04707071,10.108019 C5.37464646,10.108019 5.64454545,10.3835292 5.64454545,10.7177901 L5.64454545,11.4827871 L12.4960606,4.52669553 Z M4.45242424,12.1862503 L4.45242424,11.3305504 L3.4669697,11.3305504 C2.94979798,11.380334 2.86939394,10.8467326 2.86939394,10.7207792 L2.86939394,9.71222428 L2.03080808,9.71222428 L1.34111111,12.9163059 L4.45242424,12.1862503 Z" id="Shape"></path>
            </g>
        </g>
    </g>
</svg>