<?xml version="1.0" encoding="UTF-8"?>
<svg width="20px" height="20px" viewBox="0 0 20 20" version="1.1" xmlns="http://www.w3.org/2000/svg" xmlns:xlink="http://www.w3.org/1999/xlink">
    <!-- Generator: Sketch 52.2 (67145) - http://www.bohemiancoding.com/sketch -->
    <title>pause-1 copy 10</title>
    <desc>Created with Sketch.</desc>
    <g id="Page-1" stroke="none" stroke-width="1" fill="none" fill-rule="evenodd">
        <g id="Проекты-(процесс)" transform="translate(-120.000000, -246.000000)" fill="#5C81C2" fill-rule="nonzero">
            <g id="pause-1-copy-10" transform="translate(120.000000, 246.000000)">
                <path d="M10,0 C4.46938776,0 0,4.46938776 0,10 C0,15.5306122 4.46938776,20 10,20 C15.5306122,20 20,15.5306122 20,10 C20,4.46938776 15.5306122,0 10,0 Z M10,18.3387755 C5.40408163,18.3387755 1.66122449,14.5959184 1.66122449,10 C1.66122449,5.40408163 5.40408163,1.66122449 10,1.66122449 C14.5959184,1.66122449 18.3387755,5.40408163 18.3387755,10 C18.3387755,14.5959184 14.5959184,18.3387755 10,18.3387755 Z" id="Shape"></path>
                <path d="M13.8830957,13.4089613 L11.7600815,11.2989817 L13.7641548,9.29164969 C13.899389,9.15641548 13.899389,8.95274949 13.7641548,8.81751527 C13.2900204,8.35967413 12.6822811,8.10549898 12.0386965,8.10549898 C11.7340122,8.10549898 11.4293279,8.15600815 11.1425662,8.27494908 L8.97718941,6.10305499 C8.84195519,5.96782077 8.63828921,5.96782077 8.50305499,6.10305499 L6.10142566,8.49327902 C5.96619145,8.62851324 5.96619145,8.83217923 6.10142566,8.96741344 L8.28309572,11.1539715 C7.92790224,12.0517312 8.14460285,13.0553971 8.82403259,13.7641548 C8.95274949,13.8977597 9.20529532,13.8912424 9.29816701,13.7641548 L11.2940937,11.7633401 L13.4089613,13.8814664 C13.5441955,14.0167006 13.7478615,14.0167006 13.8830957,13.8814664 C14.0183299,13.7478615 14.0183299,13.5458248 13.8830957,13.4089613 Z M9.07820774,13.0537678 C8.72301426,12.5112016 8.67250509,11.8334012 8.97718941,11.2403259 C9.02769857,11.1050916 9.0114053,10.9519348 8.90875764,10.8509165 L6.81181263,8.7490835 L8.74093686,6.81507128 L10.8215886,8.93319756 C10.9226069,9.03421589 11.0757637,9.06843177 11.210998,9.00162933 C11.4651731,8.86639511 11.7356415,8.79796334 12.0224033,8.79796334 C12.39389,8.79796334 12.7327902,8.89898167 13.0195519,9.10264766 L9.07820774,13.0537678 Z" id="Shape" stroke="#5C81C2" stroke-width="0.75"></path>
            </g>
        </g>
    </g>
</svg>