<?xml version="1.0" encoding="UTF-8"?>
<svg width="34px" height="14px" viewBox="0 0 34 14" version="1.1" xmlns="http://www.w3.org/2000/svg" xmlns:xlink="http://www.w3.org/1999/xlink">
    <!-- Generator: Sketch 52.2 (67145) - http://www.bohemiancoding.com/sketch -->
    <title>noun_chevron_216519 copy 3</title>
    <desc>Created with Sketch.</desc>
    <g id="Page-1" stroke="none" stroke-width="1" fill="none" fill-rule="evenodd">
        <g id="Проекты-(процесс)" transform="translate(-135.000000, -500.000000)" fill-rule="nonzero">
            <g id="noun_chevron_216519-copy-3" transform="translate(135.000000, 500.000000)">
                <g id="Group">
                    <polygon id="Shape" fill="#E9A668" points="20.6693936 5.9879187 17.0593249 2.22044605e-16 12.5357981 2.22044605e-16 12.5263158 0.0055996746 16.7021596 6.93239715 12.5447941 13.8283964 17.0812071 13.8283964 20.6693936 7.87664228 21.2385727 6.93239715"></polygon>
                    <polygon id="Shape" fill="#E2954D" points="26.9325515 5.9879187 23.3224828 0 18.7989559 0 22.9653175 6.93239715 18.8079519 13.8283964 23.344365 13.8283964 26.9325515 7.87664228 27.5017305 6.93239715"></polygon>
                    <polygon id="Shape" fill="#9EA7B7" points="33.1957094 5.9879187 29.5856407 0 25.0621138 0 25.0526316 0.0055996746 29.2284754 6.93239715 25.0711098 13.8283964 29.6075229 13.8283964 33.1957094 7.87664228 33.7648884 6.93239715"></polygon>
                    <polygon id="Shape" fill="#4BB276" points="14.9754148 6.93239715 14.4064788 5.9879187 10.7964102 2.22044605e-16 6.2728833 2.22044605e-16 6.26315789 0.0055996746 10.4392449 6.93239715 6.28163616 13.8283964 10.8182923 13.8283964 14.4064788 7.87664228"></polygon>
                    <polygon id="Shape" fill="#5FCE8D" points="8.7125 6.93239715 8.14332094 5.9879187 4.53325229 2.22044605e-16 0.00972540046 2.22044605e-16 -2.22044605e-15 0.0055996746 4.17584382 6.93239715 0.0184782609 13.8283964 4.55513444 13.8283964 8.14332094 7.87664228"></polygon>
                </g>
            </g>
        </g>
    </g>
</svg>