<?xml version="1.0" encoding="UTF-8"?>
<svg width="14px" height="15px" viewBox="0 0 14 15" version="1.1" xmlns="http://www.w3.org/2000/svg" xmlns:xlink="http://www.w3.org/1999/xlink">
    <!-- Generator: Sketch 52.2 (67145) - http://www.bohemiancoding.com/sketch -->
    <title>trash copy 2</title>
    <desc>Created with Sketch.</desc>
    <g id="Page-1" stroke="none" stroke-width="1" fill="none" fill-rule="evenodd" opacity="0.495744978">
        <g id="Проекты-(процесс)" transform="translate(-396.000000, -248.000000)" fill="#3D4044">
            <path d="M404.33,260.692308 C404.638488,260.692308 404.892116,260.427418 404.899442,260.113571 L405.065,252.996484 C405.072326,252.677857 404.823419,252.40967 404.508744,252.402253 C404.189186,252.397473 403.933116,252.64489 403.925791,252.963352 L403.760233,260.087363 C403.752744,260.405824 404.001651,260.692308 404.316326,260.692308 L404.33,260.692308 Z M401.645093,260.692308 L401.658767,260.692308 C401.973442,260.692308 402.222349,260.385879 402.215023,260.067253 L402.049465,252.940769 C402.041977,252.622143 401.783953,252.361868 401.466349,252.368956 C401.151837,252.376374 400.902767,252.636319 400.910256,252.954945 L401.075814,260.096593 C401.08314,260.41044 401.336605,260.692308 401.645093,260.692308 L401.645093,260.692308 Z M401.372093,249.978022 L404.627907,249.978022 L404.627907,249.153846 L401.372093,249.153846 L401.372093,249.978022 Z M410,250.637363 C410,251.001484 409.708442,251.296703 409.348837,251.296703 L396.651163,251.296703 C396.291558,251.296703 396,251.001484 396,250.637363 C396,250.273242 396.291558,249.978022 396.651163,249.978022 L400.232558,249.978022 L400.232558,248.494505 C400.232558,248.175879 400.442395,248 400.75707,248 L405.242767,248 C405.557442,248 405.767442,248.175879 405.767442,248.494505 L405.767442,249.978022 L409.348837,249.978022 C409.708442,249.978022 410,250.273242 410,250.637363 L410,250.637363 Z M408.27393,252.844176 L407.77693,262.37544 C407.758698,262.725549 407.473,263 407.126744,263 L398.873256,263 C398.527,263 398.241302,262.725549 398.22307,262.37544 L397.726233,252.844176 C397.707186,252.480549 397.982953,252.170165 398.34207,252.151044 C398.702977,252.133407 399.007884,252.411154 399.026767,252.774615 L399.491047,261.681319 L406.508953,261.681319 L406.973233,252.774615 C406.992279,252.410989 407.30093,252.13456 407.65793,252.151044 C408.017047,252.170165 408.292814,252.480549 408.27393,252.844176 L408.27393,252.844176 Z" id="trash-copy-2"></path>
        </g>
    </g>
</svg>