<?xml version="1.0" encoding="UTF-8"?>
<svg width="20px" height="20px" viewBox="0 0 20 20" version="1.1" xmlns="http://www.w3.org/2000/svg" xmlns:xlink="http://www.w3.org/1999/xlink">
    <!-- Generator: Sketch 52.2 (67145) - http://www.bohemiancoding.com/sketch -->
    <title>checked copy 10</title>
    <desc>Created with Sketch.</desc>
    <g id="Page-1" stroke="none" stroke-width="1" fill="none" fill-rule="evenodd">
        <g id="Проекты-(процесс)" transform="translate(-780.000000, -246.000000)" fill-rule="nonzero">
            <g id="checked-copy-10" transform="translate(780.000000, 246.000000)">
                <path d="M10,20 C4.46938776,20 0,15.5306122 0,10 C0,4.46938776 4.46938776,0 10,0 C15.5306122,0 20,4.46938776 20,10 C20,15.5306122 15.5306122,20 10,20 Z M10,1.66122449 C5.40408163,1.66122449 1.66122449,5.40408163 1.66122449,10 C1.66122449,14.5959184 5.40408163,18.3387755 10,18.3387755 C14.5959184,18.3387755 18.3387755,14.5959184 18.3387755,10 C18.3387755,5.40408163 14.5959184,1.66122449 10,1.66122449 Z" id="Shape" fill=""></path>
                <path d="M8.04081633,13.4040816 L5.95918367,10.2979592 C5.70204082,9.91428571 5.7877551,9.40408163 6.17142857,9.15102041 C6.55510204,8.89795918 7.06530612,8.97959184 7.31836735,9.36326531 L8.84897959,11.6204082 L12.755102,7.71428571 C13.0857143,7.38367347 13.6285714,7.37142857 13.9591837,7.70612245 C14.2979592,8.04489796 14.2938776,8.55510204 13.955102,8.89387755 L9.31836735,13.4897959 C9.18367347,13.6571429 8.53061224,14.0122449 8.04081633,13.4040816 Z" id="Shape" fill="#5C81C2"></path>
            </g>
        </g>
    </g>
</svg>