<?xml version="1.0" encoding="UTF-8"?>
<svg width="20px" height="20px" viewBox="0 0 20 20" version="1.1" xmlns="http://www.w3.org/2000/svg" xmlns:xlink="http://www.w3.org/1999/xlink">
    <!-- Generator: Sketch 52.2 (67145) - http://www.bohemiancoding.com/sketch -->
    <title>play-button copy 2</title>
    <desc>Created with Sketch.</desc>
    <g id="Page-1" stroke="none" stroke-width="1" fill="none" fill-rule="evenodd">
        <g id="Проекты-(процесс)" transform="translate(-251.000000, -126.000000)" fill="#E96880" fill-rule="nonzero">
            <g id="play-button-copy-2" transform="translate(251.000000, 126.000000)">
                <path d="M10,0 C4.46938776,0 0,4.46938776 0,10 C0,15.5306122 4.46938776,20 10,20 C15.5306122,20 20,15.5306122 20,10 C20,4.46938776 15.5306122,0 10,0 Z M10,18.3387755 C5.40408163,18.3387755 1.66122449,14.5959184 1.66122449,10 C1.66122449,5.40408163 5.40408163,1.66122449 10,1.66122449 C14.5959184,1.66122449 18.3387755,5.40408163 18.3387755,10 C18.3387755,14.5959184 14.5959184,18.3387755 10,18.3387755 Z" id="Shape"></path>
                <path d="M14.3387755,9.36326531 L8.55510204,5.19183673 C8.08979592,4.88163265 7.23673469,4.94693878 7.23673469,5.82857143 L7.23673469,14.2122449 C7.23673469,15.0897959 8.0244898,15.2489796 8.55510204,14.8938776 L14.3428571,10.722449 C14.7836735,10.2816327 14.8204082,9.84489796 14.3387755,9.36326531 Z M8.89387755,12.555102 L8.89387755,7.44489796 L12.4244898,10 L8.89387755,12.555102 Z" id="Shape"></path>
            </g>
        </g>
    </g>
</svg>