<?xml version="1.0" encoding="UTF-8"?>
<svg width="20px" height="18px" viewBox="0 0 20 18" version="1.1" xmlns="http://www.w3.org/2000/svg" xmlns:xlink="http://www.w3.org/1999/xlink">
    <!-- Generator: Sketch 52.2 (67145) - http://www.bohemiancoding.com/sketch -->
    <title>5 copy 2</title>
    <desc>Created with Sketch.</desc>
    <g id="Page-1" stroke="none" stroke-width="1" fill="none" fill-rule="evenodd">
        <g id="Проекты-(процесс)" transform="translate(-120.000000, -188.000000)" fill="#3D4044">
            <g id="5-copy-2" transform="translate(120.000000, 188.000000)">
                <path d="M1.23777726,16.9097664 C3.97271465,14.1804075 6.72960651,14.922921 9.76106305,16.5790696 C11.2665504,17.4015187 12.931743,18 14.6254497,18 C16.5769875,18 18.2654734,17.2036039 19.720626,15.7752721 C20.0528881,15.4491642 20.0914423,14.8610449 19.8214292,14.4752813 C19.5587788,14.1000278 19.0905061,14.0381517 18.7668116,14.3559699 C18.0518189,15.0580715 17.240173,15.5992656 16.3199596,15.8997645 C14.2994795,16.5595297 12.2138052,15.9119028 10.3835525,14.9119669 C9.79613665,14.591188 9.19841294,14.2911332 8.58516046,14.0354871 C5.51247236,12.7542961 2.81876652,12.9594643 0.274458152,15.4989019 C-0.054323357,15.8270822 -0.0893969544,16.4184581 0.182624229,16.800669 C0.447818109,17.173258 0.916760139,17.2301011 1.23777726,16.9097664 Z M1.23777726,3.64473904 C3.97244692,0.915676277 6.72987425,1.65818977 9.76106305,3.31404224 C11.2664165,4.13634338 12.931743,4.73512071 14.6254497,4.73482465 C16.5768537,4.73467662 18.2654734,3.93887268 19.720626,2.5105408 C20.053022,2.18428486 20.0915762,1.59616562 19.8214292,1.210254 C19.5589127,0.835148497 19.0903722,0.772828286 18.7668116,1.09049853 C18.0515512,1.79274814 17.2397714,2.33394219 16.3192903,2.63444107 C14.298944,3.29420636 12.2136714,2.64687551 10.3835525,1.64693957 C9.79693986,1.32645677 9.19975162,1.02669803 8.58743622,0.771199967 C5.51394491,-0.510731232 2.81956974,-0.306155144 0.274458152,2.23431867 C-0.0555281752,2.56368321 -0.0902001666,3.15209851 0.182624229,3.53549364 C0.447818109,3.90823068 0.916760139,3.96507382 1.23777726,3.64473904 Z M1.23777726,10.2696292 C3.97244692,7.54056644 6.72987425,8.28293191 9.76106305,9.93893241 C11.2664165,10.7613816 12.931743,11.360455 14.6254497,11.3603069 C16.5769875,11.3600109 18.2654734,10.5634668 19.720626,9.1351349 C20.0528881,8.809027 20.0914423,8.22105579 19.8214292,7.83514417 C19.5589127,7.46003866 19.0905061,7.39801451 18.7668116,7.71583279 C18.0518189,8.41793437 17.240173,8.95912841 16.3199596,9.25947927 C14.2994795,9.91924455 12.2138052,9.27146962 10.3835525,8.27153368 C9.79640439,7.95075482 9.19894841,7.65084805 8.58596367,7.39534999 C5.51287396,6.11386288 2.81890039,6.31932714 0.274458152,8.85920884 C-0.0555281752,9.18857338 -0.0902001666,9.77713671 0.182624229,10.1605318 C0.447818109,10.5332689 0.916760139,10.589964 1.23777726,10.2696292 Z" id="Shape"></path>
            </g>
        </g>
    </g>
</svg>