<?xml version="1.0" encoding="UTF-8"?>
<svg width="18px" height="18px" viewBox="0 0 18 18" version="1.1" xmlns="http://www.w3.org/2000/svg" xmlns:xlink="http://www.w3.org/1999/xlink">
    <!-- Generator: Sketch 52.2 (67145) - http://www.bohemiancoding.com/sketch -->
    <title>play-button copy 4</title>
    <desc>Created with Sketch.</desc>
    <g id="Page-1" stroke="none" stroke-width="1" fill="none" fill-rule="evenodd">
        <g id="Проекты-(процесс)" transform="translate(-450.000000, -248.000000)" fill="#5C81C2" fill-rule="nonzero">
            <g id="play-button-copy-4" transform="translate(450.000000, 248.000000)">
                <path d="M9,0 C4.02244898,0 0,4.02244898 0,9 C0,13.977551 4.02244898,18 9,18 C13.977551,18 18,13.977551 18,9 C18,4.02244898 13.977551,0 9,0 Z M9,16.504898 C4.86367347,16.504898 1.49510204,13.1363265 1.49510204,9 C1.49510204,4.86367347 4.86367347,1.49510204 9,1.49510204 C13.1363265,1.49510204 16.504898,4.86367347 16.504898,9 C16.504898,13.1363265 13.1363265,16.504898 9,16.504898 Z" id="Shape"></path>
                <path d="M12.904898,8.42693878 L7.69959184,4.67265306 C7.28081633,4.39346939 6.51306122,4.4522449 6.51306122,5.24571429 L6.51306122,12.7910204 C6.51306122,13.5808163 7.22204082,13.7240816 7.69959184,13.4044898 L12.9085714,9.65020408 C13.3053061,9.25346939 13.3383673,8.86040816 12.904898,8.42693878 Z M8.0044898,11.2995918 L8.0044898,6.70040816 L11.1820408,9 L8.0044898,11.2995918 Z" id="Shape"></path>
            </g>
        </g>
    </g>
</svg>